<?xml version="1.0" encoding="UTF-8" standalone="no"?>
<!DOCTYPE svg PUBLIC "-//W3C//DTD SVG 1.1//EN" "http://www.w3.org/Graphics/SVG/1.1/DTD/svg11.dtd">
<!-- Created with Vectornator (http://vectornator.io/) -->
<svg height="100%" stroke-miterlimit="10" style="fill-rule:nonzero;clip-rule:evenodd;stroke-linecap:round;stroke-linejoin:round;" version="1.1" viewBox="0 0 3840 2160" width="100%" xml:space="preserve" xmlns="http://www.w3.org/2000/svg" xmlns:vectornator="http://vectornator.io" xmlns:xlink="http://www.w3.org/1999/xlink">
<defs/>
<g id="Layer-3" vectornator:layerName="Layer 3">
<path d="M1317.89 504.601L1367.43 653.195L1412.15 788.147L1463.25 931.084L1514.36 1074.02L1555.88 1191.41" fill="#412293" fill-opacity="0" fill-rule="nonzero" opacity="1" stroke="#ffffff" stroke-dasharray="4.0" stroke-linecap="butt" stroke-linejoin="round" stroke-width="1" vectornator:layerName="path"/>
<path d="M1839.53 368.08C1839.53 368.08 1875.87 439.359 1869.05 472.843C1866.94 483.221 1860.88 495.873 1860.88 495.873C1860.88 495.873 1840.53 512.768 1817.52 528.282C1784.17 550.763 1737.46 568.426 1737.46 568.426C1737.46 568.426 1690.96 585.003 1648.3 596.564C1605.65 608.124 1563.53 607.351 1563.53 607.351" fill="#412293" fill-opacity="0" fill-rule="nonzero" opacity="1" stroke="#ffffff" stroke-dasharray="4.0" stroke-linecap="butt" stroke-linejoin="round" stroke-width="1" vectornator:layerName="path"/>
<path d="M1978.28 325.501L2148.48 555.77L2264.56 725.431" fill="#412293" fill-opacity="0" fill-rule="nonzero" opacity="1" stroke="#ffffff" stroke-dasharray="4.0" stroke-linecap="butt" stroke-linejoin="round" stroke-width="1" vectornator:layerName="path"/>
<path d="M1156.44 546.369L1076.18 720.523L1079.21 878.02L1120.09 1005.23L1100.41 1161.21L1145.84 1335.36L1276.08 1447.43L1419.94 1588.27L1538.06 1720.02L1535.93 1718.19" fill="#412293" fill-opacity="0" fill-rule="nonzero" opacity="1" stroke="#ffffff" stroke-dasharray="4.0" stroke-linecap="butt" stroke-linejoin="round" stroke-width="1" vectornator:layerName="path"/>
<path d="M1377.88 656.416L1566.26 606.88" fill="#412293" fill-opacity="0" fill-rule="nonzero" opacity="1" stroke="#ffffff" stroke-dasharray="4.0" stroke-linecap="butt" stroke-linejoin="round" stroke-width="1" vectornator:layerName="path"/>
<path d="M479.505 701.117C479.505 701.117 994.078 580.934 1147.2 548.006" fill="#412293" fill-opacity="0" fill-rule="nonzero" opacity="1" stroke="#ffffff" stroke-dasharray="4.0" stroke-linecap="butt" stroke-linejoin="round" stroke-width="1" vectornator:layerName="path"/>
<path d="M1563.18 607.398L1712.72 1119.99" fill="#412293" fill-opacity="0" fill-rule="nonzero" opacity="1" stroke="#ffffff" stroke-dasharray="4.0" stroke-linecap="butt" stroke-linejoin="round" stroke-width="1" vectornator:layerName="path"/>
<path d="M1160.45 541.46C1160.45 541.46 1675.59 407.24 1872.76 355.868C2069.92 304.497 1949.11 335.974 1949.11 335.974" fill="#412293" fill-opacity="0" fill-rule="nonzero" opacity="1" stroke="#ffffff" stroke-dasharray="4.0" stroke-linecap="butt" stroke-linejoin="round" stroke-width="1" vectornator:layerName="path"/>
<path d="M1851.4 1016.3L2225.65 1005.92L2381.1 1028.57" fill="#412293" fill-opacity="0" fill-rule="nonzero" opacity="1" stroke="#ffffff" stroke-dasharray="4.0" stroke-linecap="butt" stroke-linejoin="round" stroke-width="1" vectornator:layerName="path"/>
<path d="M1080.76 868L1417.74 794.535" fill="#412293" fill-opacity="0" fill-rule="nonzero" opacity="1" stroke="#ffffff" stroke-dasharray="4.0" stroke-linecap="butt" stroke-linejoin="round" stroke-width="1" vectornator:layerName="path"/>
<path d="M1074.86 717.443L1076.18 718.236L1366.63 658.784" fill="#412293" fill-opacity="0" fill-rule="nonzero" opacity="1" stroke="#ffffff" stroke-dasharray="4.0" stroke-linecap="butt" stroke-linejoin="round" stroke-width="1" vectornator:layerName="path"/>
<path d="M3671.28 1162.04C3671.28 1162.04 3781.51 1185.7 3730.36 1208.89C3690.36 1227.03 3638.5 1251.17 3580.69 1279.63C3448.95 1344.48 3286.31 1431.73 3286.31 1431.73L3149.27 1231.06C3149.27 1231.06 3190.13 1198.24 3207.26 1158.67C3224.39 1119.11 3217.79 1072.81 3217.79 1072.81C3217.79 1072.81 3197.32 1043.57 3159.5 1010.54C3139.12 992.74 3101.12 975.635 3086.98 957.353C3046.61 905.146 3054.02 862.565 3054.02 862.565L2925.89 862.362L2919.24 862.351L2948.6 1040.18C2948.6 1040.18 2785.73 1020.63 2651.68 886.823C2524.7 760.071 2261.77 720.415 2261.77 720.415C2261.77 720.415 2231.92 856.05 2222.54 1027.35C2213.16 1198.65 2221.21 1244.17 2231.43 1405.62C2239.67 1535.95 2255.44 1630.21 2261.21 1661.71M3442.65 1631.05C3442.65 1631.05 3273.21 1431.73 3287.48 1431.09" fill="#412293" fill-opacity="0" fill-rule="nonzero" opacity="1" stroke="#ffffff" stroke-dasharray="4.0" stroke-linecap="butt" stroke-linejoin="round" stroke-width="1" vectornator:layerName="path"/>
<path d="M2660.61 894.303C2660.61 894.303 2659.73 892.9 2633.05 926.361C2621.32 941.074 2602.6 953.847 2590.51 972.782C2560.6 1019.62 2536.63 1081.07 2536.63 1081.07" fill="#412293" fill-opacity="0" fill-rule="nonzero" opacity="1" stroke="#ffffff" stroke-dasharray="4.0" stroke-linecap="butt" stroke-linejoin="round" stroke-width="1" vectornator:layerName="path"/>
<path d="M2442.39 771.788L2408.93 892.46L2380.89 1020.87" fill="#412293" fill-opacity="0" fill-rule="nonzero" opacity="1" stroke="#ffffff" stroke-dasharray="4.0" stroke-linecap="butt" stroke-linejoin="round" stroke-width="1" vectornator:layerName="path"/>
<path d="M2383.62 1029.09C2423.48 1041.98 2532.93 1085.32 2532.93 1085.32" fill="#412293" fill-opacity="0" fill-rule="nonzero" opacity="1" stroke="#ffffff" stroke-dasharray="4.0" stroke-linecap="butt" stroke-linejoin="round" stroke-width="1" vectornator:layerName="path"/>
<path d="M1813.47 879.887L1870.46 1080.63L1997.41 1441.21L2122.03 1698.86" fill="#412293" fill-opacity="0" fill-rule="nonzero" opacity="1" stroke="#ffffff" stroke-dasharray="4.0" stroke-linecap="butt" stroke-linejoin="round" stroke-width="1" vectornator:layerName="path"/>
<path d="M1708.59 1123.38L1872.93 1070.95" fill="#412293" fill-opacity="0" fill-rule="nonzero" opacity="1" stroke="#ffffff" stroke-dasharray="4.0" stroke-linecap="butt" stroke-linejoin="round" stroke-width="1" vectornator:layerName="path"/>
<path d="M1550.28 1192.32L1717.58 1119.97" fill="#412293" fill-opacity="0" fill-rule="nonzero" opacity="1" stroke="#ffffff" stroke-dasharray="4.0" stroke-linecap="butt" stroke-linejoin="round" stroke-width="1" vectornator:layerName="path"/>
<path d="M1556.11 1183.66L1680.02 1516.62" fill="#412293" fill-opacity="0" fill-rule="nonzero" opacity="1" stroke="#ffffff" stroke-dasharray="4.0" stroke-linecap="butt" stroke-linejoin="round" stroke-width="1" vectornator:layerName="path"/>
<path d="M1675.4 1506.38L2002.41 1434.67" fill="#412293" fill-opacity="0" fill-rule="nonzero" opacity="1" stroke="#ffffff" stroke-dasharray="4.0" stroke-linecap="butt" stroke-linejoin="round" stroke-width="1" vectornator:layerName="path"/>
<path d="M1672.63 1495.54L1773.64 1754.57" fill="#412293" fill-opacity="0" fill-rule="nonzero" opacity="1" stroke="#ffffff" stroke-dasharray="4.0" stroke-linecap="butt" stroke-linejoin="round" stroke-width="1" vectornator:layerName="path"/>
<path d="M1428.01 1588.09L1677.39 1512.55" fill="#412293" fill-opacity="0" fill-rule="nonzero" opacity="1" stroke="#ffffff" stroke-dasharray="4.0" stroke-linecap="butt" stroke-linejoin="round" stroke-width="1" vectornator:layerName="path"/>
<path d="M1282.87 1448.7L1606.21 1312.65" fill="#412293" fill-opacity="0" fill-rule="nonzero" opacity="1" stroke="#ffffff" stroke-dasharray="4.0" stroke-linecap="butt" stroke-linejoin="round" stroke-width="1" vectornator:layerName="path"/>
<path d="M1144.85 1333.67L1556.24 1186.95" fill="#412293" fill-opacity="0" fill-rule="nonzero" opacity="1" stroke="#ffffff" stroke-dasharray="4.0" stroke-linecap="butt" stroke-linejoin="round" stroke-width="1" vectornator:layerName="path"/>
<path d="M1100.06 1160.14L1512.32 1070.35" fill="#412293" fill-opacity="0" fill-rule="nonzero" opacity="1" stroke="#ffffff" stroke-dasharray="4.0" stroke-linecap="butt" stroke-linejoin="round" stroke-width="1" vectornator:layerName="path"/>
<path d="M1116.68 1004.79L1457.8 935.566" fill="#412293" fill-opacity="0" fill-rule="nonzero" opacity="1" stroke="#ffffff" stroke-dasharray="4.0" stroke-linecap="butt" stroke-linejoin="round" stroke-width="1" vectornator:layerName="path"/>
<path d="M2659.82 894.14C2659.82 894.14 2647.01 872.749 2713.81 862.178C2776.06 852.327 2890.76 861.609 2920.62 862.428C2922.81 862.488 2924.54 862.502 2925.76 862.461" fill="#412293" fill-opacity="0" fill-rule="nonzero" opacity="1" stroke="#fefeff" stroke-dasharray="4.0" stroke-linecap="butt" stroke-linejoin="round" stroke-width="1" vectornator:layerName="path"/>
<path d="M2946.03 1035.26L3148.58 1227.75C3148.58 1227.75 3128.67 1240.57 3034.03 1256.03C3006.02 1260.6 2971.48 1265.41 2928.97 1270.18C2742.79 1291.07 2403.86 1311.32 2403.86 1311.32L2225.58 1350.75" fill="#412293" fill-opacity="0" fill-rule="nonzero" opacity="1" stroke="#ffffff" stroke-dasharray="4.0" stroke-linecap="butt" stroke-linejoin="round" stroke-width="1" vectornator:layerName="path"/>
<path d="M3045.51 863.215C3073.06 860.568 3112.94 855.679 3157.03 850.056L3186.15 846.308L3213.93 842.731C3219.37 842.027 3224.83 841.322 3230.28 840.618C3233.55 840.196 3236.81 839.774 3240.08 839.353C3305.53 830.913 3369.57 822.829 3409.17 819.377" fill="#412293" fill-opacity="0" fill-rule="nonzero" opacity="1" stroke="#ffffff" stroke-dasharray="4.0" stroke-linecap="butt" stroke-linejoin="round" stroke-width="1" vectornator:layerName="path"/>
<path d="M3218.21 848.043L3591.29 1167.18" fill="none" opacity="1" stroke="#ffffff" stroke-dasharray="4.0" stroke-linecap="butt" stroke-linejoin="round" stroke-width="1" vectornator:layerName="path"/>
<path d="M2534.34 1089.67L2586.09 1264.02C2586.09 1264.02 2626.98 1358.53 2656.85 1408.71C2666.8 1425.41 2675.52 1437.2 2682.73 1445.5C2697.18 1462.14 2706.66 1466.56 2706.66 1466.56" fill="#412293" fill-opacity="0" fill-rule="nonzero" opacity="1" stroke="#ffffff" stroke-dasharray="4.0" stroke-linecap="butt" stroke-linejoin="round" stroke-width="1" vectornator:layerName="path"/>
<path d="M2768.33 972.395C2768.33 972.395 2723.12 1003.27 2721.84 1081.99C2720.56 1160.71 2763.21 1287.28 2763.21 1287.28" fill="#412293" fill-opacity="0" fill-rule="nonzero" opacity="1" stroke="#ffffff" stroke-dasharray="4.0" stroke-linecap="butt" stroke-linejoin="round" stroke-width="1" vectornator:layerName="path"/>
<path d="M1997.12 1437.44L2228.99 1380.54" fill="#412293" fill-opacity="0" fill-rule="nonzero" opacity="1" stroke="#ffffff" stroke-dasharray="4.0" stroke-linecap="butt" stroke-linejoin="round" stroke-width="1" vectornator:layerName="path"/>
<path d="M3164.25 1232.03L3689.01 1165.92" fill="none" opacity="1" stroke="#ffffff" stroke-dasharray="4.0" stroke-linecap="butt" stroke-linejoin="round" stroke-width="1" vectornator:layerName="path"/>
<path d="M3217.52 1071.44L3259.68 1085.45L3288.79 1101.64L3308.29 1114.9L3325.98 1132.65L3341.14 1154.55L3350.85 1173.1L3357.72 1206.65L3367.29 1235.98L3387.04 1273.01L3413.68 1297.65L3445.37 1319.84L3475.92 1338.77L3511.64 1352.74L3555.79 1362.37L3598.18 1363.72L3643.13 1365.58L3694.21 1362.22" fill="none" opacity="1" stroke="#ffffff" stroke-dasharray="4.0" stroke-linecap="butt" stroke-linejoin="round" stroke-width="1" vectornator:layerName="path"/>
<path d="M3401.44 817.286C3401.44 817.286 3398.78 814.011 3467.96 899.466C3537.14 984.92 3678.14 1159.1 3678.14 1159.1" fill="#8b959f" fill-rule="nonzero" opacity="1" stroke="#ffffff" stroke-dasharray="4.0" stroke-linecap="butt" stroke-linejoin="round" stroke-width="1" vectornator:layerName="path"/>
<path d="M3514.57 1458.16L3710.14 1366.17L3745.77 1194.84" fill="#ffffff" fill-opacity="0" fill-rule="nonzero" opacity="1" stroke="#ffffff" stroke-dasharray="4.0" stroke-linecap="butt" stroke-linejoin="round" stroke-width="1" vectornator:layerName="path"/>
<path d="M2909.47 1029.5L2926.73 1268.04" fill="#412293" fill-opacity="0" fill-rule="nonzero" opacity="1" stroke="#ffffff" stroke-dasharray="4.0" stroke-linecap="butt" stroke-linejoin="round" stroke-width="1" vectornator:layerName="path"/>
<path d="M2924.92 1269.52L2988.73 1399.04L3041.43 1633.87" fill="#412293" fill-opacity="0" fill-rule="nonzero" opacity="1" stroke="#ffffff" stroke-dasharray="4.0" stroke-linecap="butt" stroke-linejoin="round" stroke-width="1" vectornator:layerName="path"/>
<path d="M3686.23 1932.16C3684.29 1885.05 3670.06 1652.55 3603.01 1540.56C3582.91 1506.99 3506.32 1456.7 3506.32 1456.7C3506.32 1456.7 3457.91 1454.3 3418.08 1445.16C3378.24 1436.03 3292.43 1428.17 3292.43 1428.17L3284.58 1430.75" fill="#412293" fill-opacity="0" fill-rule="nonzero" opacity="1" stroke="#ffffff" stroke-dasharray="4.0" stroke-linecap="butt" stroke-linejoin="round" stroke-width="1" vectornator:layerName="path"/>
<path d="M3227.3 1629.12C3227.3 1629.12 3240.66 1710.21 3246.44 1774.49C3252.21 1838.76 3253.89 1910.54 3253.89 1910.54L3252.87 1907.57" fill="#412293" fill-opacity="0" fill-rule="nonzero" opacity="1" stroke="#ffffff" stroke-dasharray="4.0" stroke-linecap="butt" stroke-linejoin="round" stroke-width="1" vectornator:layerName="path"/>
<path d="M3041.17 1624.67C3041.17 1624.67 3038.33 1691.94 3043.42 1722.14C3048.51 1752.35 3056.26 1775.52 3056.26 1775.52C3056.26 1775.52 3067.88 1794.08 3089.29 1811.11C3110.7 1828.13 3141.91 1843.62 3141.91 1843.62L3193.98 1873.85C3193.98 1873.85 3246.55 1906.32 3253.54 1914.17" fill="#412293" fill-opacity="0" fill-rule="nonzero" opacity="1" stroke="#ffffff" stroke-dasharray="4.0" stroke-linecap="butt" stroke-linejoin="round" stroke-width="1" vectornator:layerName="path"/>
<path d="M3258.21 1908.99C3254.82 1909.64 3248.24 1933.92 3248.24 1933.92L3226.01 1948.86L3182.24 1962.47L3013.28 1986.4L2823.64 2002.78" fill="#412293" fill-opacity="0" fill-rule="nonzero" opacity="1" stroke="#ffffff" stroke-dasharray="4.0" stroke-linecap="butt" stroke-linejoin="round" stroke-width="1" vectornator:layerName="path"/>
<path d="M2766.61 1624.75L2841.08 2003.26" fill="#412293" fill-opacity="0" fill-rule="nonzero" opacity="1" stroke="#ffffff" stroke-dasharray="4.0" stroke-linecap="butt" stroke-linejoin="round" stroke-width="1" vectornator:layerName="path"/>
<path d="M1520.01 1714.09L1768.14 1745.16L2122.14 1697.16L2260.14 1666.16L2511.14 1647.16L2764.14 1628.16C2764.14 1628.16 3040.56 1615.46 3039.38 1623.73C3038.2 1632 3228.41 1633.18 3228.41 1633.18L3436.34 1633.18L3445.08 1630.12" fill="#412293" fill-opacity="0" fill-rule="nonzero" opacity="1" stroke="#ffffff" stroke-dasharray="4.0" stroke-linecap="butt" stroke-linejoin="round" stroke-width="1" vectornator:layerName="path"/>
<path d="M2513.75 1644.02L2590.84 2091.98" fill="#412293" fill-opacity="0" fill-rule="nonzero" opacity="1" stroke="#ffffff" stroke-dasharray="4.0" stroke-linecap="butt" stroke-linejoin="round" stroke-width="1" vectornator:layerName="path"/>
<path d="M2266.84 1674.37L2343.39 2101.2" fill="#412293" fill-opacity="0" fill-rule="nonzero" opacity="1" stroke="#ffffff" stroke-dasharray="4.0" stroke-linecap="butt" stroke-linejoin="round" stroke-width="1" vectornator:layerName="path"/>
<path d="M2327.67 2042.77L2589.12 2020.68" fill="#412293" fill-opacity="0" fill-rule="nonzero" opacity="1" stroke="#ffffff" stroke-dasharray="4.0" stroke-linecap="butt" stroke-linejoin="round" stroke-width="1" vectornator:layerName="path"/>
<path d="M2578.81 2020.78L2840.52 2001.09" fill="#412293" fill-opacity="0" fill-rule="nonzero" opacity="1" stroke="#ffffff" stroke-dasharray="4.0" stroke-linecap="butt" stroke-linejoin="round" stroke-width="1" vectornator:layerName="path"/>
<path d="M2304.32 1848.71L2411.26 1839.01L2455.26 2033.57" fill="#412293" fill-opacity="0" fill-rule="nonzero" opacity="1" stroke="#ffffff" stroke-dasharray="4.0" stroke-linecap="butt" stroke-linejoin="round" stroke-width="1" vectornator:layerName="path"/>
<path d="M2076.12 1704.61L2144.12 2106.36" fill="#412293" fill-opacity="0" fill-rule="nonzero" opacity="1" stroke="#ffffff" stroke-dasharray="4.0" stroke-linecap="butt" stroke-linejoin="round" stroke-width="1" vectornator:layerName="path"/>
<path d="M1765.68 1745.21C1765.68 1745.21 1874.55 1833.77 1919.38 1917.02C1964.2 2000.27 2006.8 2127.64 2006.8 2127.64L2144.45 2096.36" fill="#412293" fill-opacity="0" fill-rule="nonzero" opacity="1" stroke="#ffffff" stroke-dasharray="4.0" stroke-linecap="butt" stroke-linejoin="round" stroke-width="1" vectornator:layerName="path"/>
<path d="M2333.11 2095.69L2150.47 2095.69" fill="none" opacity="1" stroke="#ffffff" stroke-dasharray="4.0" stroke-linecap="butt" stroke-linejoin="round" stroke-width="1" vectornator:layerName="path"/>
<path d="M2331.1 2093.01L2585.32 2081.64" fill="none" opacity="1" stroke="#ffffff" stroke-dasharray="4.0" stroke-linecap="butt" stroke-linejoin="round" stroke-width="1" vectornator:layerName="path"/>
<path d="M918.666 2147.49L1137.48 2132.72L1335.88 2114.19L1438.96 2102.03L1639.81 2095L1739.39 2100.66L1844.2 2114.42L2001.9 2127.57L2003.6 2127.6" fill="none" opacity="1" stroke="#ffffff" stroke-dasharray="4.0" stroke-linecap="butt" stroke-linejoin="round" stroke-width="1" vectornator:layerName="path"/>
<path d="M142.427 711.96L311.603 832.434L415.328 970.734L482.832 1112.33L551.982 1263.8L675.464 1556.86L1113.41 1658.94L1537.91 1719.21L1118.35 2044.2L626.071 1716.57L88.3874 1787.49" fill="#412293" fill-opacity="0" fill-rule="nonzero" opacity="1" stroke="#ffffff" stroke-dasharray="4.0" stroke-linecap="butt" stroke-linejoin="round" stroke-width="1" vectornator:layerName="path"/>
<path d="M54.5158 1842.55C105.91 1983.62 563.354 2135.73 563.354 2135.73L663.641 2128.81L731.495 2134.9L799.35 2144.47L862.854 2152.3L909.83 2148.82" fill="#412293" fill-opacity="0" fill-rule="nonzero" opacity="1" stroke="#ffffff" stroke-dasharray="4.0" stroke-linecap="butt" stroke-linejoin="round" stroke-width="1" vectornator:layerName="path"/>
<path d="M919.427 2148.02L319.007 1758.25" fill="#412293" fill-opacity="0" fill-rule="nonzero" opacity="1" stroke="#ffffff" stroke-dasharray="4.0" stroke-linecap="butt" stroke-linejoin="round" stroke-width="1" vectornator:layerName="path"/>
<path d="M907 2147.47L1122.89 2039.25" fill="#412293" fill-opacity="0" fill-rule="nonzero" opacity="1" stroke="#ffffff" stroke-dasharray="4.0" stroke-linecap="butt" stroke-linejoin="round" stroke-width="1" vectornator:layerName="path"/>
<path d="M553.628 1268.74L835.167 1489.36L1108.47 1530.52L1116.71 1662.23" fill="#412293" fill-opacity="0" fill-rule="nonzero" opacity="1" stroke="#ffffff" stroke-dasharray="4.0" stroke-linecap="butt" stroke-linejoin="round" stroke-width="1" vectornator:layerName="path"/>
<path d="M34.584 1506.38L266.685 1769.02" fill="#412293" fill-opacity="0" fill-rule="nonzero" opacity="1" stroke="#ffffff" stroke-dasharray="4.0" stroke-linecap="butt" stroke-linejoin="round" stroke-width="1" vectornator:layerName="path"/>
<path d="M9.6216 1080.71C86.7634 1142.13 318.189 1326.36 318.189 1326.36" fill="#412293" fill-opacity="0" fill-rule="nonzero" opacity="1" stroke="#ffffff" stroke-dasharray="4.0" stroke-linecap="butt" stroke-linejoin="round" stroke-width="1" vectornator:layerName="path"/>
<path d="M310.673 1324.7L559.753 1273.14" fill="#412293" fill-opacity="0" fill-rule="nonzero" opacity="1" stroke="#ffffff" stroke-dasharray="4.0" stroke-linecap="butt" stroke-linejoin="round" stroke-width="1" vectornator:layerName="path"/>
<path d="M4.12487 1085.98L81.5582 1067.9L422.767 988.188" fill="#412293" fill-opacity="0" fill-rule="nonzero" opacity="1" stroke="#ffffff" stroke-dasharray="4.0" stroke-linecap="butt" stroke-linejoin="round" stroke-width="1" vectornator:layerName="path"/>
<path d="M77.6304 906.253L321.41 845.036" fill="#412293" fill-opacity="0" fill-rule="nonzero" opacity="1" stroke="#ffffff" stroke-dasharray="4.0" stroke-linecap="butt" stroke-linejoin="round" stroke-width="1" vectornator:layerName="path"/>
<path d="M11.8156 1086.49L138.551 708.56" fill="#412293" fill-opacity="0" fill-rule="nonzero" opacity="1" stroke="#ffffff" stroke-dasharray="4.0" stroke-linecap="butt" stroke-linejoin="round" stroke-width="1" vectornator:layerName="path"/>
<path d="M39.8474 1513.71L141.973 1365.84L630.01 1717.44L695.221 1644.12L674.473 1554.64" fill="#412293" fill-opacity="0" fill-rule="nonzero" opacity="1" stroke="#ffffff" stroke-dasharray="4.0" stroke-linecap="butt" stroke-linejoin="round" stroke-width="1" vectornator:layerName="path"/>
<path d="M473.175 706.326L838.077 1493.99" fill="#412293" fill-opacity="0" fill-rule="nonzero" opacity="1" stroke="#ffffff" stroke-dasharray="4.0" stroke-linecap="butt" stroke-linejoin="round" stroke-width="1" vectornator:layerName="path"/>
<path d="M11.7456 1079.19C0.768305 1185.64 44.4453 1506 44.4453 1506" fill="none" opacity="1" stroke="#ffffff" stroke-dasharray="4.0" stroke-linecap="butt" stroke-linejoin="round" stroke-width="1" vectornator:layerName="path"/>
<path d="M40.1427 1507.72L89.1922 1783.09" fill="none" opacity="1" stroke="#ffffff" stroke-dasharray="4.0" stroke-linecap="butt" stroke-linejoin="round" stroke-width="1" vectornator:layerName="path"/>
<path d="M89.0527 1784.95C78.9009 1797.21 55.4453 1846 55.4453 1846" fill="none" opacity="1" stroke="#ffffff" stroke-dasharray="4.0" stroke-linecap="butt" stroke-linejoin="round" stroke-width="1" vectornator:layerName="path"/>
<path d="M145.78 1366.56L18.9677 1273.27" fill="none" opacity="1" stroke="#ffffff" stroke-dasharray="4.0" stroke-linecap="butt" stroke-linejoin="round" stroke-width="1" vectornator:layerName="path"/>
<path d="M467.796 702.203C467.796 702.203 528.905 700.906 408.083 703.469C287.261 706.031 142.117 708.614 142.117 708.614" fill="none" opacity="1" stroke="#ffffff" stroke-dasharray="4.0" stroke-linecap="butt" stroke-linejoin="round" stroke-width="1" vectornator:layerName="path"/>
</g>
</svg>
