<?xml version="1.0" encoding="UTF-8" standalone="no"?>
<!DOCTYPE svg PUBLIC "-//W3C//DTD SVG 1.1//EN" "http://www.w3.org/Graphics/SVG/1.1/DTD/svg11.dtd">
<!-- Created with Vectornator (http://vectornator.io/) -->
<svg height="100%" stroke-miterlimit="10" style="fill-rule:nonzero;clip-rule:evenodd;stroke-linecap:round;stroke-linejoin:round;" version="1.1" viewBox="0 0 3840 2160" width="100%" xml:space="preserve" xmlns="http://www.w3.org/2000/svg" xmlns:vectornator="http://vectornator.io" xmlns:xlink="http://www.w3.org/1999/xlink">
<defs/>
<clipPath id="ArtboardFrame">
<rect height="2160" width="3840" x="0" y="0"/>
</clipPath>
<g clip-path="url(#ArtboardFrame)" id="Layer-2" vectornator:layerName="Layer 2">
<path d="M3604.62 1540.84L3657.2 1697.89L3687.78 1926.47L3600.58 2016.87L3490.74 2062.54L3378.44 2024.5L3255.31 1909.14L3240.99 1947.22L3154.31 1969.03L3004.29 1989.34L2579.13 2021.53L2589.49 2081.8L2337.62 2095.06L2146.26 2096.67L2004.49 2125.95L1875.82 2116.5L1733.63 2100.85L1602.43 2096.2L1434.41 2103.8L911.247 2149.11L830.467 2148.09L662.504 2128.44L562.799 2136.15L338.955 2047.63L168.468 1957.22L93.8301 1899.02L52.5901 1843.85L87.583 1782.73L41.0098 1510.51L-91.0536 1509.35L-101.702 2244.92L3886.21 2258.03L3954.88 1539.82L3604.62 1540.84Z" fill="#63b3ff" fill-rule="nonzero" opacity="1" stroke="none"/>
</g>
<g clip-path="url(#ArtboardFrame)" id="Layer-3" vectornator:layerName="Layer 3">
<path d="M137.059 713.347L470.026 699.98L1986.73 321.551L2262.96 714.167L2481.84 778.15L2652.38 882.551L2735.97 860.712L3055.19 862.633L3405.65 817.355L3676.68 1156.79L3744.48 1193.17L3707.49 1360.65L3516.42 1459.99L3604.62 1540.84L3975.92 1559.76L4030.52-132.011L-90.3065-202.724L-117.523 1561.64L41.0098 1510.51L17.2946 1268.57L11.5844 1082.39L137.059 713.347Z" fill="#63b3ff" fill-rule="nonzero" opacity="1" stroke="none"/>
</g>
</svg>
