<?xml version="1.0" encoding="UTF-8" standalone="no"?>
<!DOCTYPE svg PUBLIC "-//W3C//DTD SVG 1.1//EN" "http://www.w3.org/Graphics/SVG/1.1/DTD/svg11.dtd">
<!-- Created with Vectornator (http://vectornator.io/) -->
<svg height="100%" stroke-miterlimit="10" style="fill-rule:nonzero;clip-rule:evenodd;stroke-linecap:round;stroke-linejoin:round;" version="1.1" viewBox="0 0 3840 2160" width="100%" xml:space="preserve" xmlns="http://www.w3.org/2000/svg" xmlns:vectornator="http://vectornator.io" xmlns:xlink="http://www.w3.org/1999/xlink">
<defs/>
<clipPath id="ArtboardFrame">
<rect height="2160" width="3840" x="0" y="0"/>
</clipPath>
<g clip-path="url(#ArtboardFrame)" id="Layer-1" vectornator:layerName="Layer 1">
<path d="M137.082 705.659L311.603 832.434L415.328 970.734L482.832 1112.33L551.982 1263.8L675.464 1556.86L1113.41 1658.94L1537.91 1719.21L1118.35 2044.2L626.071 1716.57L88.3874 1787.49" fill="#412293" fill-opacity="0" fill-rule="nonzero" opacity="1" stroke="#ffffff" stroke-dasharray="4.0" stroke-linecap="butt" stroke-linejoin="round" stroke-width="1" vectornator:layerName="path"/>
<path d="M133.192 710.639L311.603 832.434L415.328 970.734L482.832 1112.33L551.982 1263.8L675.464 1556.86L1113.41 1658.94L1537.91 1719.21L1118.35 2044.2L626.071 1716.57L88.3874 1787.49" fill="#412293" fill-opacity="0" fill-rule="nonzero" opacity="1" stroke="#8b959f" stroke-linecap="butt" stroke-linejoin="round" stroke-width="16.86" vectornator:layerName="path"/>
<path d="M54.5158 1842.55C105.91 1983.62 563.354 2135.73 563.354 2135.73L663.641 2128.81L731.495 2134.9L799.35 2144.47L862.854 2152.3L909.83 2148.82" fill="#412293" fill-opacity="0" fill-rule="nonzero" opacity="1" stroke="#8b959f" stroke-linecap="butt" stroke-linejoin="round" stroke-width="16.8716" vectornator:layerName="path"/>
<path d="M54.5158 1842.55C105.91 1983.62 563.354 2135.73 563.354 2135.73L663.641 2128.81L731.495 2134.9L799.35 2144.47L862.854 2152.3L909.83 2148.82" fill="#412293" fill-opacity="0" fill-rule="nonzero" opacity="1" stroke="#ffffff" stroke-dasharray="4.0" stroke-linecap="butt" stroke-linejoin="round" stroke-width="1" vectornator:layerName="path"/>
<path d="M919.427 2148.02L319.007 1758.25" fill="#412293" fill-opacity="0" fill-rule="nonzero" opacity="1" stroke="#8b959f" stroke-linecap="butt" stroke-linejoin="round" stroke-width="16.8716" vectornator:layerName="path"/>
<path d="M919.427 2148.02L319.007 1758.25" fill="#412293" fill-opacity="0" fill-rule="nonzero" opacity="1" stroke="#ffffff" stroke-dasharray="4.0" stroke-linecap="butt" stroke-linejoin="round" stroke-width="1" vectornator:layerName="path"/>
<path d="M907 2147.47L1122.89 2039.25" fill="#412293" fill-opacity="0" fill-rule="nonzero" opacity="1" stroke="#8b959f" stroke-linecap="butt" stroke-linejoin="round" stroke-width="16.8716" vectornator:layerName="path"/>
<path d="M907 2147.47L1122.89 2039.25" fill="#412293" fill-opacity="0" fill-rule="nonzero" opacity="1" stroke="#ffffff" stroke-dasharray="4.0" stroke-linecap="butt" stroke-linejoin="round" stroke-width="1" vectornator:layerName="path"/>
<path d="M34.584 1506.38L266.685 1769.02" fill="#412293" fill-opacity="0" fill-rule="nonzero" opacity="1" stroke="#8b959f" stroke-linecap="butt" stroke-linejoin="round" stroke-width="16.8716" vectornator:layerName="path"/>
<path d="M34.584 1506.38L266.685 1769.02" fill="#412293" fill-opacity="0" fill-rule="nonzero" opacity="1" stroke="#ffffff" stroke-dasharray="4.0" stroke-linecap="butt" stroke-linejoin="round" stroke-width="1" vectornator:layerName="path"/>
<path d="M39.8474 1513.71L141.973 1365.84L630.01 1717.44L695.221 1644.12L674.473 1554.64" fill="#412293" fill-opacity="0" fill-rule="nonzero" opacity="1" stroke="#8b959f" stroke-linecap="butt" stroke-linejoin="round" stroke-width="24.7801" vectornator:layerName="path"/>
<path d="M39.8474 1513.71L141.973 1365.84L630.01 1717.44L695.221 1644.12L674.473 1554.64" fill="#412293" fill-opacity="0" fill-rule="nonzero" opacity="1" stroke="#ffffff" stroke-dasharray="4.0" stroke-linecap="butt" stroke-linejoin="round" stroke-width="1" vectornator:layerName="path"/>
<path d="M1520.01 1714.09L1768.14 1745.16L2122.14 1697.16L2260.14 1666.16L2511.14 1647.16L2764.14 1628.16C2764.14 1628.16 3040.56 1615.46 3039.38 1623.73C3038.2 1632 3228.41 1633.18 3228.41 1633.18L3436.34 1633.18L3445.08 1630.12" fill="#412293" fill-opacity="0" fill-rule="nonzero" opacity="1" stroke="#8b959f" stroke-linecap="butt" stroke-linejoin="round" stroke-width="24.2863" vectornator:layerName="path"/>
<path d="M1520.01 1714.09L1768.14 1745.16L2122.14 1697.16L2260.14 1666.16L2511.14 1647.16L2764.14 1628.16C2764.14 1628.16 3040.56 1615.46 3039.38 1623.73C3038.2 1632 3228.41 1633.18 3228.41 1633.18L3436.34 1633.18L3445.08 1630.12" fill="#412293" fill-opacity="0" fill-rule="nonzero" opacity="1" stroke="#ffffff" stroke-dasharray="4.0" stroke-linecap="butt" stroke-linejoin="round" stroke-width="1" vectornator:layerName="path"/>
<path d="M40.1427 1507.72L89.1922 1783.09" fill="none" opacity="1" stroke="#8b959f" stroke-linecap="butt" stroke-linejoin="round" stroke-width="16.8716" vectornator:layerName="path"/>
<path d="M40.1427 1507.72L89.1922 1783.09" fill="none" opacity="1" stroke="#ffffff" stroke-dasharray="4.0" stroke-linecap="butt" stroke-linejoin="round" stroke-width="1" vectornator:layerName="path"/>
<path d="M89.0527 1784.95C78.9009 1797.21 55.4453 1846 55.4453 1846" fill="none" opacity="1" stroke="#8b959f" stroke-linecap="butt" stroke-linejoin="round" stroke-width="16.8716" vectornator:layerName="path"/>
<path d="M89.0527 1784.95C78.9009 1797.21 55.4453 1846 55.4453 1846" fill="none" opacity="1" stroke="#ffffff" stroke-dasharray="4.0" stroke-linecap="butt" stroke-linejoin="round" stroke-width="1" vectornator:layerName="path"/>
<path d="M918.666 2147.49L1137.48 2132.72L1335.88 2114.19L1438.96 2102.03L1639.81 2095L1739.39 2100.66L1844.2 2114.42L2001.9 2127.57L2003.6 2127.6" fill="none" opacity="1" stroke="#8b959f" stroke-linecap="butt" stroke-linejoin="round" stroke-width="16.6571" vectornator:layerName="path"/>
<path d="M918.666 2147.49L1137.48 2132.72L1335.88 2114.19L1438.96 2102.03L1639.81 2095L1739.39 2100.66L1844.2 2114.42L2001.9 2127.57L2003.6 2127.6" fill="none" opacity="1" stroke="#ffffff" stroke-dasharray="4.0" stroke-linecap="butt" stroke-linejoin="round" stroke-width="1" vectornator:layerName="path"/>
<path d="M54.5158 1842.55C105.91 1983.62 563.354 2135.73 563.354 2135.73L663.641 2128.81L731.495 2134.9L799.35 2144.47L862.854 2152.3L909.83 2148.82" fill="#412293" fill-opacity="0" fill-rule="nonzero" opacity="1" stroke="#8b959f" stroke-linecap="butt" stroke-linejoin="round" stroke-width="16.8716" vectornator:layerName="path"/>
<path d="M54.5158 1842.55C105.91 1983.62 563.354 2135.73 563.354 2135.73L663.641 2128.81L731.495 2134.9L799.35 2144.47L862.854 2152.3L909.83 2148.82" fill="#412293" fill-opacity="0" fill-rule="nonzero" opacity="1" stroke="#ffffff" stroke-dasharray="4.0" stroke-linecap="butt" stroke-linejoin="round" stroke-width="1" vectornator:layerName="path"/>
<path d="M919.427 2148.02L319.007 1758.25" fill="#412293" fill-opacity="0" fill-rule="nonzero" opacity="1" stroke="#8b959f" stroke-linecap="butt" stroke-linejoin="round" stroke-width="16.8716" vectornator:layerName="path"/>
<path d="M919.427 2148.02L319.007 1758.25" fill="#412293" fill-opacity="0" fill-rule="nonzero" opacity="1" stroke="#ffffff" stroke-dasharray="4.0" stroke-linecap="butt" stroke-linejoin="round" stroke-width="1" vectornator:layerName="path"/>
<path d="M907 2147.47L1122.89 2039.25" fill="#412293" fill-opacity="0" fill-rule="nonzero" opacity="1" stroke="#8b959f" stroke-linecap="butt" stroke-linejoin="round" stroke-width="16.8716" vectornator:layerName="path"/>
<path d="M907 2147.47L1122.89 2039.25" fill="#412293" fill-opacity="0" fill-rule="nonzero" opacity="1" stroke="#ffffff" stroke-dasharray="4.0" stroke-linecap="butt" stroke-linejoin="round" stroke-width="1" vectornator:layerName="path"/>
<path d="M34.584 1506.38L266.685 1769.02" fill="#412293" fill-opacity="0" fill-rule="nonzero" opacity="1" stroke="#8b959f" stroke-linecap="butt" stroke-linejoin="round" stroke-width="16.8716" vectornator:layerName="path"/>
<path d="M34.584 1506.38L266.685 1769.02" fill="#412293" fill-opacity="0" fill-rule="nonzero" opacity="1" stroke="#ffffff" stroke-dasharray="4.0" stroke-linecap="butt" stroke-linejoin="round" stroke-width="1" vectornator:layerName="path"/>
<path d="M39.8474 1513.71L141.973 1365.84L630.01 1717.44L695.221 1644.12L674.473 1554.64" fill="#412293" fill-opacity="0" fill-rule="nonzero" opacity="1" stroke="#8b959f" stroke-linecap="butt" stroke-linejoin="round" stroke-width="24.7801" vectornator:layerName="path"/>
<path d="M39.8474 1513.71L141.973 1365.84L630.01 1717.44L695.221 1644.12L674.473 1554.64" fill="#412293" fill-opacity="0" fill-rule="nonzero" opacity="1" stroke="#ffffff" stroke-dasharray="4.0" stroke-linecap="butt" stroke-linejoin="round" stroke-width="1" vectornator:layerName="path"/>
<path d="M1520.01 1714.09L1768.14 1745.16L2122.14 1697.16L2260.14 1666.16L2511.14 1647.16L2764.14 1628.16C2764.14 1628.16 3040.56 1615.46 3039.38 1623.73C3038.2 1632 3228.41 1633.18 3228.41 1633.18L3436.34 1633.18L3445.08 1630.12" fill="#412293" fill-opacity="0" fill-rule="nonzero" opacity="1" stroke="#8b959f" stroke-linecap="butt" stroke-linejoin="round" stroke-width="24.2863" vectornator:layerName="path"/>
<path d="M1520.01 1714.09L1768.14 1745.16L2122.14 1697.16L2260.14 1666.16L2511.14 1647.16L2764.14 1628.16C2764.14 1628.16 3040.56 1615.46 3039.38 1623.73C3038.2 1632 3228.41 1633.18 3228.41 1633.18L3436.34 1633.18L3445.08 1630.12" fill="#412293" fill-opacity="0" fill-rule="nonzero" opacity="1" stroke="#ffffff" stroke-dasharray="4.0" stroke-linecap="butt" stroke-linejoin="round" stroke-width="1" vectornator:layerName="path"/>
<path d="M40.1427 1507.72L89.1922 1783.09" fill="none" opacity="1" stroke="#8b959f" stroke-linecap="butt" stroke-linejoin="round" stroke-width="16.8716" vectornator:layerName="path"/>
<path d="M40.1427 1507.72L89.1922 1783.09" fill="none" opacity="1" stroke="#ffffff" stroke-dasharray="4.0" stroke-linecap="butt" stroke-linejoin="round" stroke-width="1" vectornator:layerName="path"/>
<path d="M89.0527 1784.95C78.9009 1797.21 55.4453 1846 55.4453 1846" fill="none" opacity="1" stroke="#8b959f" stroke-linecap="butt" stroke-linejoin="round" stroke-width="16.8716" vectornator:layerName="path"/>
<path d="M89.0527 1784.95C78.9009 1797.21 55.4453 1846 55.4453 1846" fill="none" opacity="1" stroke="#ffffff" stroke-dasharray="4.0" stroke-linecap="butt" stroke-linejoin="round" stroke-width="1" vectornator:layerName="path"/>
<path d="M918.666 2147.49L1137.48 2132.72L1335.88 2114.19L1438.96 2102.03L1639.81 2095L1739.39 2100.66L1844.2 2114.42L2001.9 2127.57L2003.6 2127.6" fill="none" opacity="1" stroke="#8b959f" stroke-linecap="butt" stroke-linejoin="round" stroke-width="16.6571" vectornator:layerName="path"/>
<path d="M918.666 2147.49L1137.48 2132.72L1335.88 2114.19L1438.96 2102.03L1639.81 2095L1739.39 2100.66L1844.2 2114.42L2001.9 2127.57L2003.6 2127.6" fill="none" opacity="1" stroke="#ffffff" stroke-dasharray="4.0" stroke-linecap="butt" stroke-linejoin="round" stroke-width="1" vectornator:layerName="path"/>
<path d="M54.5158 1842.55C105.91 1983.62 563.354 2135.73 563.354 2135.73L663.641 2128.81L731.495 2134.9L799.35 2144.47L862.854 2152.3L909.83 2148.82" fill="#412293" fill-opacity="0" fill-rule="nonzero" opacity="1" stroke="#8b959f" stroke-linecap="butt" stroke-linejoin="round" stroke-width="16.8716" vectornator:layerName="path"/>
<path d="M54.5158 1842.55C105.91 1983.62 563.354 2135.73 563.354 2135.73L663.641 2128.81L731.495 2134.9L799.35 2144.47L862.854 2152.3L909.83 2148.82" fill="#412293" fill-opacity="0" fill-rule="nonzero" opacity="1" stroke="#ffffff" stroke-dasharray="4.0" stroke-linecap="butt" stroke-linejoin="round" stroke-width="1" vectornator:layerName="path"/>
<path d="M919.427 2148.02L319.007 1758.25" fill="#412293" fill-opacity="0" fill-rule="nonzero" opacity="1" stroke="#8b959f" stroke-linecap="butt" stroke-linejoin="round" stroke-width="16.8716" vectornator:layerName="path"/>
<path d="M919.427 2148.02L319.007 1758.25" fill="#412293" fill-opacity="0" fill-rule="nonzero" opacity="1" stroke="#ffffff" stroke-dasharray="4.0" stroke-linecap="butt" stroke-linejoin="round" stroke-width="1" vectornator:layerName="path"/>
<path d="M907 2147.47L1122.89 2039.25" fill="#412293" fill-opacity="0" fill-rule="nonzero" opacity="1" stroke="#8b959f" stroke-linecap="butt" stroke-linejoin="round" stroke-width="16.8716" vectornator:layerName="path"/>
<path d="M907 2147.47L1122.89 2039.25" fill="#412293" fill-opacity="0" fill-rule="nonzero" opacity="1" stroke="#ffffff" stroke-dasharray="4.0" stroke-linecap="butt" stroke-linejoin="round" stroke-width="1" vectornator:layerName="path"/>
<path d="M34.584 1506.38L266.685 1769.02" fill="#412293" fill-opacity="0" fill-rule="nonzero" opacity="1" stroke="#8b959f" stroke-linecap="butt" stroke-linejoin="round" stroke-width="16.8716" vectornator:layerName="path"/>
<path d="M34.584 1506.38L266.685 1769.02" fill="#412293" fill-opacity="0" fill-rule="nonzero" opacity="1" stroke="#ffffff" stroke-dasharray="4.0" stroke-linecap="butt" stroke-linejoin="round" stroke-width="1" vectornator:layerName="path"/>
<path d="M39.8474 1513.71L141.973 1365.84L630.01 1717.44L695.221 1644.12L674.473 1554.64" fill="#412293" fill-opacity="0" fill-rule="nonzero" opacity="1" stroke="#8b959f" stroke-linecap="butt" stroke-linejoin="round" stroke-width="24.7801" vectornator:layerName="path"/>
<path d="M39.8474 1513.71L141.973 1365.84L630.01 1717.44L695.221 1644.12L674.473 1554.64" fill="#412293" fill-opacity="0" fill-rule="nonzero" opacity="1" stroke="#ffffff" stroke-dasharray="4.0" stroke-linecap="butt" stroke-linejoin="round" stroke-width="1" vectornator:layerName="path"/>
<path d="M1520.01 1714.09L1768.14 1745.16L2122.14 1697.16L2260.14 1666.16L2511.14 1647.16L2764.14 1628.16C2764.14 1628.16 3040.56 1615.46 3039.38 1623.73C3038.2 1632 3228.41 1633.18 3228.41 1633.18L3436.34 1633.18L3445.08 1630.12" fill="#412293" fill-opacity="0" fill-rule="nonzero" opacity="1" stroke="#8b959f" stroke-linecap="butt" stroke-linejoin="round" stroke-width="24.2863" vectornator:layerName="path"/>
<path d="M1520.01 1714.09L1768.14 1745.16L2122.14 1697.16L2260.14 1666.16L2511.14 1647.16L2764.14 1628.16C2764.14 1628.16 3040.56 1615.46 3039.38 1623.73C3038.2 1632 3228.41 1633.18 3228.41 1633.18L3436.34 1633.18L3445.08 1630.12" fill="#412293" fill-opacity="0" fill-rule="nonzero" opacity="1" stroke="#ffffff" stroke-dasharray="4.0" stroke-linecap="butt" stroke-linejoin="round" stroke-width="1" vectornator:layerName="path"/>
<path d="M40.1427 1507.72L89.1922 1783.09" fill="none" opacity="1" stroke="#8b959f" stroke-linecap="butt" stroke-linejoin="round" stroke-width="16.8716" vectornator:layerName="path"/>
<path d="M40.1427 1507.72L89.1922 1783.09" fill="none" opacity="1" stroke="#ffffff" stroke-dasharray="4.0" stroke-linecap="butt" stroke-linejoin="round" stroke-width="1" vectornator:layerName="path"/>
<path d="M89.0527 1784.95C78.9009 1797.21 55.4453 1846 55.4453 1846" fill="none" opacity="1" stroke="#8b959f" stroke-linecap="butt" stroke-linejoin="round" stroke-width="16.8716" vectornator:layerName="path"/>
<path d="M89.0527 1784.95C78.9009 1797.21 55.4453 1846 55.4453 1846" fill="none" opacity="1" stroke="#ffffff" stroke-dasharray="4.0" stroke-linecap="butt" stroke-linejoin="round" stroke-width="1" vectornator:layerName="path"/>
<path d="M918.666 2147.49L1137.48 2132.72L1335.88 2114.19L1438.96 2102.03L1639.81 2095L1739.39 2100.66L1844.2 2114.42L2001.9 2127.57L2003.6 2127.6" fill="none" opacity="1" stroke="#8b959f" stroke-linecap="butt" stroke-linejoin="round" stroke-width="16.6571" vectornator:layerName="path"/>
<path d="M918.666 2147.49L1137.48 2132.72L1335.88 2114.19L1438.96 2102.03L1639.81 2095L1739.39 2100.66L1844.2 2114.42L2001.9 2127.57L2003.6 2127.6" fill="none" opacity="1" stroke="#ffffff" stroke-dasharray="4.0" stroke-linecap="butt" stroke-linejoin="round" stroke-width="1" vectornator:layerName="path"/>
<path d="M1156.44 546.369L1076.18 720.523L1079.21 878.02L1120.09 1005.23L1100.41 1161.21L1145.84 1335.36L1276.08 1447.43L1419.94 1588.27L1538.06 1720.02L1535.93 1718.19" fill="#412293" fill-opacity="0" fill-rule="nonzero" opacity="1" stroke="#8b959f" stroke-linecap="butt" stroke-linejoin="round" stroke-width="16.8716" vectornator:layerName="path"/>
<path d="M54.5158 1842.55C105.91 1983.62 563.354 2135.73 563.354 2135.73L663.641 2128.81L731.495 2134.9L799.35 2144.47L862.854 2152.3L909.83 2148.82" fill="#412293" fill-opacity="0" fill-rule="nonzero" opacity="1" stroke="#8b959f" stroke-linecap="butt" stroke-linejoin="round" stroke-width="16.8716" vectornator:layerName="path"/>
<path d="M919.427 2148.02L319.007 1758.25" fill="#412293" fill-opacity="0" fill-rule="nonzero" opacity="1" stroke="#8b959f" stroke-linecap="butt" stroke-linejoin="round" stroke-width="16.8716" vectornator:layerName="path"/>
<path d="M907 2147.47L1122.89 2039.25" fill="#412293" fill-opacity="0" fill-rule="nonzero" opacity="1" stroke="#8b959f" stroke-linecap="butt" stroke-linejoin="round" stroke-width="16.8716" vectornator:layerName="path"/>
<path d="M34.584 1506.38L266.685 1769.02" fill="#412293" fill-opacity="0" fill-rule="nonzero" opacity="1" stroke="#8b959f" stroke-linecap="butt" stroke-linejoin="round" stroke-width="16.8716" vectornator:layerName="path"/>
<path d="M39.8474 1513.71L141.973 1365.84L630.01 1717.44L695.221 1644.12L674.473 1554.64" fill="#412293" fill-opacity="0" fill-rule="nonzero" opacity="1" stroke="#8b959f" stroke-linecap="butt" stroke-linejoin="round" stroke-width="24.7801" vectornator:layerName="path"/>
<path d="M1520.01 1714.09L1768.14 1745.16L2122.14 1697.16L2260.14 1666.16L2511.14 1647.16L2764.14 1628.16C2764.14 1628.16 3040.56 1615.46 3039.38 1623.73C3038.2 1632 3228.41 1633.18 3228.41 1633.18L3436.34 1633.18L3445.08 1630.12" fill="#412293" fill-opacity="0" fill-rule="nonzero" opacity="1" stroke="#8b959f" stroke-linecap="butt" stroke-linejoin="round" stroke-width="24.2863" vectornator:layerName="path"/>
<path d="M40.1427 1507.72L89.1922 1783.09" fill="none" opacity="1" stroke="#8b959f" stroke-linecap="butt" stroke-linejoin="round" stroke-width="16.8716" vectornator:layerName="path"/>
<path d="M89.0527 1784.95C78.9009 1797.21 55.4453 1846 55.4453 1846" fill="none" opacity="1" stroke="#8b959f" stroke-linecap="butt" stroke-linejoin="round" stroke-width="16.8716" vectornator:layerName="path"/>
<path d="M89.0527 1784.95C78.9009 1797.21 55.4453 1846 55.4453 1846" fill="none" opacity="1" stroke="#ffffff" stroke-dasharray="4.0" stroke-linecap="butt" stroke-linejoin="round" stroke-width="1" vectornator:layerName="path"/>
<path d="M918.666 2147.49L1137.48 2132.72L1335.88 2114.19L1438.96 2102.03L1639.81 2095L1739.39 2100.66L1844.2 2114.42L2001.9 2127.57L2003.6 2127.6" fill="none" opacity="1" stroke="#8b959f" stroke-linecap="butt" stroke-linejoin="round" stroke-width="16.6571" vectornator:layerName="path"/>
</g>
</svg>
