# Blender v3.4.1 OBJ File: 'house-v4.blend'
# www.blender.org
mtllib house-v4.mtl
o Plane
v 2.877866 8.398308 1.840430
v 7.295055 8.398308 1.840430
v 2.877866 8.398308 -1.832844
v 7.295055 8.398308 -1.832844
vt 0.000000 0.000000
vt 1.000000 0.000000
vt 1.000000 1.000000
vt 0.000000 1.000000
vn 0.0000 1.0000 0.0000
usemtl Material.004
s off
f 1/1/1 2/2/1 4/3/1 3/4/1
o door_Cube.004
v 5.806646 0.860325 4.197292
v 5.806646 2.495602 4.197292
v 4.609945 0.860325 4.197292
v 4.609945 2.495602 4.197292
v 5.806646 0.860325 3.615375
v 5.806646 2.495602 3.615375
v 4.609945 0.860325 3.615375
v 4.609945 2.495602 3.615375
v 5.592745 2.213036 4.197292
v 5.592745 0.860325 4.197292
v 4.793842 2.213036 4.197292
v 4.793842 0.860325 4.197292
v 5.592745 2.213036 3.615375
v 4.793842 2.213036 3.615375
v 5.592745 0.860325 3.615375
v 4.793842 0.860325 3.615375
vt 0.375000 0.000000
vt 0.625000 0.000000
vt 0.625000 0.250000
vt 0.375000 0.250000
vt 0.375000 0.211582
vt 0.581802 0.211582
vt 0.581802 0.044686
vt 0.375000 0.044686
vt 0.625000 0.500000
vt 0.375000 0.500000
vt 0.625000 0.750000
vt 0.375000 0.750000
vt 0.375000 0.705314
vt 0.581802 0.705314
vt 0.581802 0.538418
vt 0.375000 0.538418
vt 0.625000 1.000000
vt 0.375000 1.000000
vt 0.125000 0.750000
vt 0.125000 0.705314
vt 0.125000 0.538418
vt 0.125000 0.500000
vt 0.875000 0.500000
vt 0.875000 0.750000
vt 0.418355 0.453554
vt 0.625000 0.453554
vt 0.625000 0.296446
vt 0.418355 0.296446
vt 0.625000 0.953554
vt 0.625000 0.796446
vt 0.418355 0.796446
vt 0.418355 0.953554
vt 0.828554 0.500000
vt 0.671446 0.500000
vt 0.671446 0.750000
vt 0.828554 0.750000
vn 0.0000 0.0000 1.0000
vn -1.0000 0.0000 0.0000
vn 0.0000 0.0000 -1.0000
vn 1.0000 0.0000 0.0000
vn 0.0000 -1.0000 0.0000
vn 0.0000 1.0000 0.0000
usemtl Material.003
s off
f 5/5/2 6/6/2 8/7/2 7/8/2 16/9/2 15/10/2 13/11/2 14/12/2
f 7/8/3 8/7/3 12/13/3 11/14/3
f 11/14/4 12/13/4 10/15/4 9/16/4 19/17/4 17/18/4 18/19/4 20/20/4
f 9/16/5 10/15/5 6/21/5 5/22/5
f 9/16/6 5/23/6 14/24/6 19/17/6
f 16/25/6 7/26/6 11/14/6 20/20/6
f 12/13/7 8/27/7 6/28/7 10/15/7
f 20/29/5 18/30/5 15/31/5 16/32/5
f 13/33/3 17/34/3 19/35/3 14/36/3
f 15/37/6 18/38/6 17/39/6 13/40/6
o Cube.001
v -0.913539 4.795004 5.000000
v 5.085917 7.795004 0.000453
v -0.913539 4.795004 -5.000000
v 5.085917 7.795004 -0.000453
v 11.086460 4.795004 5.000000
v 5.087004 7.795004 0.000453
v 11.086460 4.795004 -5.000000
v 5.087004 7.795004 -0.000453
v 2.208146 6.355988 2.398596
v 2.208146 6.355988 -2.398596
v 7.964775 6.355988 -2.398596
v 7.964775 6.355988 2.398596
v -0.018091 6.912497 4.253793
v 2.859680 8.351513 1.855650
v 2.859680 8.351513 -1.855650
v 7.313241 8.351513 -1.855650
v 7.313241 8.351513 1.855650
v -0.018091 6.912497 -4.253793
v 10.191011 6.912497 -4.253793
v 10.191011 6.912497 4.253793
vt 0.875000 0.750000
vt 0.875000 0.500000
vt 0.875000 0.500000
vt 0.875000 0.750000
vt 0.505082 0.750000
vt 0.505082 0.500000
vt 0.505082 0.500000
vt 0.505082 0.750000
vt 0.625000 0.500000
vt 0.625000 0.750000
vt 0.625000 0.750000
vt 0.625000 0.500000
vt 0.505082 0.250000
vt 0.505082 0.000000
vt 0.505082 0.000000
vt 0.505082 0.250000
vt 0.125000 0.500000
vt 0.375000 0.500000
vt 0.375000 0.750000
vt 0.125000 0.750000
vt 0.505082 1.000000
vt 0.375000 1.000000
vt 0.375000 0.250000
vt 0.375000 0.000000
vt 0.625000 0.000000
vt 0.625000 0.250000
vt 0.625000 1.000000
vt 0.505082 1.000000
vn 0.2425 0.9701 0.0000
vn 0.2425 -0.9701 0.0000
vn -0.2425 0.9701 0.0000
vn -0.2425 -0.9701 0.0000
vn 0.0000 -1.0000 0.0000
vn 0.0000 1.0000 0.0000
vn 0.0000 0.8575 0.5145
vn 0.4472 0.8944 0.0000
vn 0.0000 0.8575 -0.5145
vn -0.4472 0.8944 0.0000
vn 0.0000 0.9578 -0.2873
vn 0.0000 -0.9578 -0.2873
vn 0.0000 -0.9578 0.2873
vn 0.0000 0.9578 0.2873
usemtl Material.002
s off
f 22/41/8 24/42/8 35/43/8 34/44/8
f 32/45/9 31/46/9 39/47/9 40/48/9
f 28/49/10 26/50/10 37/51/10 36/52/10
f 30/53/11 29/54/11 33/55/11 38/56/11
f 23/57/12 27/58/12 25/59/12 21/60/12
f 28/49/13 24/42/13 22/41/13 26/50/13
f 25/59/14 32/45/14 29/61/14 21/62/14
f 27/58/15 31/46/15 32/45/15 25/59/15
f 23/63/16 30/53/16 31/46/16 27/58/16
f 21/64/17 29/54/17 30/53/17 23/63/17
f 33/55/17 34/65/17 35/66/17 38/56/17
f 38/56/16 35/66/16 36/52/16 39/47/16
f 39/47/15 36/52/15 37/51/15 40/48/15
f 40/48/14 37/51/14 34/67/14 33/68/14
f 26/50/18 22/41/18 34/44/18 37/51/18
f 31/46/19 30/53/19 38/56/19 39/47/19
f 29/61/20 32/45/20 40/48/20 33/68/20
f 24/42/21 28/49/21 36/52/21 35/43/21
o Cube_Cube.002
v 2.343243 2.267021 -3.907580
v 6.353555 2.267021 -3.907580
v 8.125645 2.267021 -3.907580
v 0.086461 0.880415 4.000000
v 0.538492 2.267021 -3.907580
v 0.178917 2.267021 3.068357
v 0.178917 2.267021 -1.495553
v 0.086461 4.880415 4.000000
v 6.353555 3.867021 -3.907580
v 8.125645 3.867021 -3.907580
v 2.343243 3.867021 -3.907580
v 0.538492 3.867021 -3.907580
v 0.178917 3.867021 3.068357
v 0.178917 3.867021 -1.495553
v 0.538492 2.267021 3.912297
v 2.343243 2.267021 3.912297
v 8.125645 2.267021 3.912297
v 10.001507 2.267021 3.068357
v 6.353555 2.267021 3.912297
v 0.086461 0.880415 -4.000000
v 10.001507 2.267021 -1.495553
v 0.538492 3.867021 3.912297
v 0.086461 4.880415 -4.000000
v 2.343243 3.867021 3.912297
v 8.125645 3.867021 3.912297
v 6.353555 3.867021 3.912297
v 10.001507 3.867021 -1.495553
v 10.001507 3.867021 3.068357
v 7.953555 2.267021 -3.907580
v 10.086460 0.880415 4.000000
v 3.943243 2.267021 -3.907580
v 0.178917 2.267021 -3.095552
v 2.138492 2.267021 -3.907580
v 0.178917 2.267021 1.468357
v 9.725645 2.267021 -3.907580
v 0.178917 3.867021 -3.095552
v 7.953555 3.867021 -3.907580
v 0.178917 3.867021 1.468357
v 10.086460 4.880415 4.000000
v 9.725645 3.867021 -3.907580
v 3.943243 3.867021 -3.907580
v 2.138492 3.867021 -3.907580
v 10.086460 0.880415 -4.000000
v 10.001507 2.267021 1.468357
v 7.953555 2.267021 3.912297
v 9.725645 2.267021 3.912297
v 3.943243 2.267021 3.912297
v 10.001507 2.267021 -3.095552
v 2.138492 2.267021 3.912297
v 10.001507 3.867021 1.468357
v 10.001507 3.867021 -3.095552
v 10.086460 4.880415 -4.000000
v 2.138492 3.867021 3.912297
v 3.943243 3.867021 3.912297
v 9.725645 3.867021 3.912297
v 7.953555 3.867021 3.912297
v 0.086461 2.267021 3.068357
v 0.086461 3.867021 3.068357
v 9.725645 2.267021 -4.000000
v 9.725645 3.867021 4.000000
v 0.086461 2.267021 1.468357
v 0.086461 3.867021 1.468357
v 0.086461 3.867021 -1.495553
v 8.125645 2.267021 -4.000000
v 9.725645 2.267021 4.000000
v 0.086461 2.267021 -1.495553
v 8.125645 3.867021 -4.000000
v 0.086461 2.267021 -3.095552
v 0.086461 3.867021 -3.095552
v 9.725645 3.867021 -4.000000
v 8.125645 2.267021 4.000000
v 2.343243 3.867021 -4.000000
v 8.125645 3.867021 4.000000
v 2.343243 2.267021 -4.000000
v 0.538492 2.267021 -4.000000
v 0.538492 3.867021 -4.000000
v 2.138492 2.267021 -4.000000
v 2.138492 3.867021 -4.000000
v 3.943243 3.867021 -4.000000
v 6.353555 3.867021 -4.000000
v 6.353555 3.867021 4.000000
v 3.943243 2.267021 -4.000000
v 6.353555 2.267021 4.000000
v 7.953555 3.867021 4.000000
v 6.353555 2.267021 -4.000000
v 7.953555 2.267021 4.000000
v 7.953555 3.867021 -4.000000
v 7.953555 2.267021 -4.000000
v 10.086460 3.867021 -1.495553
v 10.086460 2.267021 -1.495553
v 10.086460 3.867021 1.468357
v 10.086460 3.867021 -3.095552
v 10.086460 2.267021 -3.095552
v 10.086460 2.267021 3.068357
v 10.086460 3.867021 3.068357
v 10.086460 2.267021 1.468357
v 3.943243 3.867021 4.000000
v 0.538492 2.267021 4.000000
v 0.538492 3.867021 4.000000
v 2.138492 3.867021 4.000000
v 2.343243 2.267021 4.000000
v 2.138492 2.267021 4.000000
v 3.943243 2.267021 4.000000
v 2.343243 3.867021 4.000000
vt 1.466076 -3.364305
vt 0.976568 -3.139296
vt 0.203707 -3.139295
vt -0.466076 -3.364305
vt 0.976568 -2.752865
vt 1.466076 -1.432153
vt 0.976568 -1.650594
vt 0.976568 -2.037024
vt 0.203707 -2.037024
vt 0.203707 -1.650594
vt -0.466076 -1.432153
vt 0.203707 -2.752865
vt 1.466076 0.500000
vt 0.976568 0.430285
vt 0.976568 0.121140
vt 0.203707 0.121140
vt 0.203707 0.087890
vt 0.976568 0.087890
vt 0.976568 -0.221254
vt 0.976568 -0.686963
vt 0.976568 -0.996108
vt 0.976568 -1.035669
vt 0.976568 -1.344813
vt 0.203707 -0.996108
vt 0.203707 -0.686963
vt 0.203707 -0.221254
vt 0.203707 0.430285
vt -0.466076 0.500000
vt 0.203707 -1.344813
vt 0.203707 -1.035669
vt 0.976568 0.718441
vt 0.203707 0.718441
vt 0.976568 2.207143
vt 1.466076 2.432153
vt -0.466076 2.432153
vt 0.203707 2.207143
vt 0.203707 1.104872
vt 0.976568 1.104872
vt 0.976568 1.820712
vt 0.203707 1.820713
vt 0.976568 4.276966
vt 1.466076 4.364305
vt -0.466076 4.364305
vt 0.976568 2.501868
vt 0.203707 2.501868
vt 0.203707 2.811012
vt 0.976568 2.811012
vt 0.976568 2.844263
vt 0.203707 2.844262
vt 0.203707 3.153407
vt 0.203707 3.619116
vt 0.203707 3.928260
vt 0.976568 3.928260
vt 0.976568 3.967821
vt 0.203707 3.967821
vt 0.203707 4.276965
vt 0.976568 3.153407
vt 0.976568 3.619116
vt -2.398229 0.500000
vt -2.398229 2.432153
vt 3.398229 0.500000
vt 3.398229 2.432153
vt 0.375000 0.250000
vt 0.625000 0.250000
vt 0.625000 0.030742
vt 0.375000 0.030742
vt 0.625000 0.500000
vt 0.375000 0.500000
vt 0.375000 0.719258
vt 0.625000 0.719258
vt 0.125000 0.500000
vt 0.125000 0.719258
vt 0.875000 0.719258
vt 0.875000 0.500000
vt 0.375000 0.250000
vt 0.625000 0.250000
vt 0.625000 0.030742
vt 0.375000 0.030742
vt 0.625000 0.500000
vt 0.375000 0.500000
vt 0.375000 0.719258
vt 0.625000 0.719258
vt 0.125000 0.500000
vt 0.125000 0.719258
vt 0.875000 0.719258
vt 0.875000 0.500000
vt 0.375000 0.250000
vt 0.625000 0.250000
vt 0.625000 0.030742
vt 0.375000 0.030742
vt 0.625000 0.500000
vt 0.375000 0.500000
vt 0.375000 0.719258
vt 0.625000 0.719258
vt 0.125000 0.500000
vt 0.125000 0.719258
vt 0.875000 0.719258
vt 0.875000 0.500000
vt 0.375000 0.030742
vt 0.375000 0.250000
vt 0.625000 0.250000
vt 0.625000 0.030742
vt 0.625000 0.500000
vt 0.375000 0.500000
vt 0.375000 0.719258
vt 0.625000 0.719258
vt 0.125000 0.500000
vt 0.125000 0.719258
vt 0.875000 0.719258
vt 0.875000 0.500000
vt 0.625000 0.231050
vt 0.625000 0.000000
vt 0.375000 0.000000
vt 0.375000 0.231050
vt 0.375000 0.518950
vt 0.375000 0.750000
vt 0.625000 0.750000
vt 0.625000 0.518950
vt 0.125000 0.518950
vt 0.125000 0.750000
vt 0.875000 0.750000
vt 0.875000 0.518950
vt 0.625000 0.231050
vt 0.625000 0.000000
vt 0.375000 0.000000
vt 0.375000 0.231050
vt 0.375000 0.518950
vt 0.375000 0.750000
vt 0.625000 0.750000
vt 0.625000 0.518950
vt 0.125000 0.518950
vt 0.125000 0.750000
vt 0.875000 0.750000
vt 0.875000 0.518950
vt 0.625000 0.231050
vt 0.625000 0.000000
vt 0.375000 0.000000
vt 0.375000 0.231050
vt 0.375000 0.518950
vt 0.375000 0.750000
vt 0.625000 0.750000
vt 0.625000 0.518950
vt 0.125000 0.518950
vt 0.125000 0.750000
vt 0.875000 0.750000
vt 0.875000 0.518950
vt 0.625000 0.231050
vt 0.625000 0.000000
vt 0.375000 0.000000
vt 0.375000 0.231050
vt 0.375000 0.518950
vt 0.375000 0.750000
vt 0.625000 0.750000
vt 0.625000 0.518950
vt 0.125000 0.518950
vt 0.125000 0.750000
vt 0.875000 0.750000
vt 0.875000 0.518950
vt 0.625000 0.000000
vt 0.375000 0.250000
vt 0.375000 0.250000
vt 0.625000 0.000000
vt 0.375000 0.750000
vt 0.625000 0.500000
vt 0.625000 0.500000
vt 0.375000 0.750000
vt 0.125000 0.750000
vt 0.375000 0.518859
vt 0.125000 0.518859
vt 0.625000 0.750000
vt 0.875000 0.750000
vt 0.875000 0.518859
vt 0.625000 0.518859
vt 0.625000 0.000000
vt 0.375000 0.250000
vt 0.375000 0.250000
vt 0.625000 0.000000
vt 0.375000 0.750000
vt 0.625000 0.500000
vt 0.625000 0.500000
vt 0.375000 0.750000
vt 0.125000 0.750000
vt 0.375000 0.518859
vt 0.125000 0.518859
vt 0.625000 0.750000
vt 0.875000 0.750000
vt 0.875000 0.518859
vt 0.625000 0.518859
vt 0.375000 0.250000
vt 0.375000 0.250000
vt 0.625000 0.000000
vt 0.625000 0.000000
vt 0.625000 0.500000
vt 0.625000 0.500000
vt 0.375000 0.750000
vt 0.375000 0.750000
vt 0.375000 0.712386
vt 0.375000 0.500000
vt 0.125000 0.500000
vt 0.125000 0.712386
vt 0.875000 0.712386
vt 0.875000 0.500000
vt 0.625000 0.712386
vt 0.375000 0.250000
vt 0.375000 0.250000
vt 0.625000 0.000000
vt 0.625000 0.000000
vt 0.625000 0.500000
vt 0.625000 0.500000
vt 0.375000 0.750000
vt 0.375000 0.750000
vt 0.375000 0.712386
vt 0.375000 0.500000
vt 0.125000 0.500000
vt 0.125000 0.712386
vt 0.875000 0.712386
vt 0.875000 0.500000
vt 0.625000 0.712386
vt 0.625000 1.000000
vt 0.375000 1.000000
vt 0.625000 1.000000
vt 0.375000 1.000000
vt 0.625000 1.000000
vt 0.375000 1.000000
vt 0.625000 1.000000
vt 0.375000 1.000000
vt 0.625000 0.750000
vt 0.375000 1.000000
vt 0.375000 1.000000
vt 0.625000 0.750000
vt 0.375000 1.000000
vt 0.375000 1.000000
vt 0.625000 0.250000
vt 0.375000 0.500000
vt 0.625000 0.250000
vt 0.625000 0.250000
vt 0.375000 0.500000
vt 0.625000 0.250000
vn -1.0000 0.0000 0.0000
vn 0.0000 0.0000 -1.0000
vn 1.0000 0.0000 0.0000
vn 0.0000 0.0000 1.0000
vn 0.0000 -1.0000 0.0000
vn 0.0000 1.0000 0.0000
usemtl Material.001
s off
f 48/69/22 98/70/22 97/71/22 44/72/22
f 102/73/22 98/70/22 48/69/22 63/74/22 109/75/22 103/76/22 106/77/22 108/78/22 60/79/22 44/72/22 97/71/22 101/80/22
f 63/74/22 60/79/22 108/78/22 109/75/22
f 63/74/23 92/81/23 110/82/23 107/83/23 104/84/23 128/85/23 127/86/23 120/87/23 119/88/23 112/89/23 118/90/23 116/91/23
f 114/92/23 122/93/23 119/88/23 120/87/23 125/94/23 128/85/23 104/84/23 99/95/23 110/82/23 92/81/23 83/96/23 60/79/23 63/74/23 116/91/23 115/97/23 117/98/23 118/90/23 112/89/23
f 83/96/24 92/81/24 132/99/24 133/100/24
f 135/101/24 79/102/24 70/103/24 134/104/24
f 134/104/24 70/103/24 83/96/24 133/100/24 130/105/24 129/106/24 132/99/24 92/81/24 79/102/24 135/101/24 131/107/24 136/108/24
f 139/109/25 48/110/25 44/111/25 70/103/25 79/102/25 100/112/25 105/113/25 111/114/25 113/115/25 124/116/25 126/117/25 123/118/25 143/119/25 141/120/25 144/121/25 140/122/25 142/123/25 138/124/25
f 143/119/25 123/118/25 121/125/25 124/116/25 113/115/25 100/112/25 79/102/25 48/110/25 139/109/25 140/122/25 144/121/25 137/126/25
f 60/127/26 83/96/26 70/103/26 44/128/26
f 92/81/27 63/129/27 48/130/27 79/102/27
f 55/131/24 62/132/24 139/133/24 138/134/24
f 93/135/22 89/136/22 142/137/22 140/138/22
f 142/137/27 89/136/27 55/139/27 138/140/27
f 139/141/26 62/142/26 93/135/26 140/138/26
f 56/143/24 64/144/24 144/145/24 141/146/24
f 94/147/22 87/148/22 143/149/22 137/150/22
f 143/149/27 87/148/27 56/151/27 141/152/27
f 144/153/26 64/154/26 94/147/26 137/150/26
f 57/155/24 65/156/24 113/157/24 111/158/24
f 95/159/22 86/160/22 105/161/22 100/162/22
f 105/161/27 86/160/27 57/163/27 111/164/27
f 113/165/26 65/166/26 95/159/26 100/162/26
f 123/167/24 59/168/24 66/169/24 121/170/24
f 96/171/22 85/172/22 126/173/22 124/174/22
f 126/173/27 85/172/27 59/175/27 123/176/27
f 121/177/26 66/178/26 96/171/26 124/174/26
f 120/179/24 49/180/24 42/181/24 125/182/24
f 128/183/22 69/184/22 77/185/22 127/186/22
f 125/187/27 42/188/27 69/184/27 128/183/27
f 77/185/26 49/189/26 120/190/26 127/186/26
f 107/191/24 50/192/24 43/193/24 104/194/24
f 99/195/22 75/196/22 80/197/22 110/198/22
f 104/199/27 43/200/27 75/196/27 99/195/27
f 80/197/26 50/201/26 107/202/26 110/198/26
f 112/203/24 51/204/24 41/205/24 114/206/24
f 122/207/22 71/208/22 81/209/22 119/210/22
f 114/211/27 41/212/27 71/208/27 122/207/27
f 81/209/26 51/213/26 112/214/26 119/210/26
f 116/215/24 52/216/24 45/217/24 115/218/24
f 117/219/22 73/220/22 82/221/22 118/222/22
f 115/223/27 45/224/27 73/220/27 117/219/27
f 82/221/26 52/225/26 116/226/26 118/222/26
f 53/227/23 46/228/23 97/229/23 98/230/23
f 74/231/25 78/232/25 102/233/25 101/234/25
f 46/235/27 74/231/27 101/236/27 97/237/27
f 78/238/26 53/239/26 98/240/26 102/241/26
f 54/242/23 47/243/23 106/244/23 103/245/23
f 72/246/25 76/247/25 109/248/25 108/249/25
f 47/250/27 72/246/27 108/251/27 106/252/27
f 76/253/26 54/254/26 103/255/26 109/256/26
f 130/257/23 61/258/23 67/259/23 129/260/23
f 132/261/25 91/262/25 88/263/25 133/264/25
f 133/265/27 88/266/27 61/267/27 130/268/27
f 129/269/26 67/270/26 91/262/26 132/271/26
f 134/272/23 58/273/23 68/274/23 135/275/23
f 131/276/25 90/277/25 84/278/25 136/279/25
f 136/280/27 84/281/27 58/282/27 134/283/27
f 135/284/26 68/285/26 90/277/26 131/286/26
usemtl Material.005
f 62/132/25 55/131/25 89/136/25 93/135/25
f 64/144/25 56/143/25 87/148/25 94/147/25
f 65/156/25 57/155/25 86/160/25 95/159/25
f 66/169/25 59/168/25 85/172/25 96/171/25
f 49/287/23 77/185/23 69/184/23 42/288/23
f 50/289/23 80/197/23 75/196/23 43/290/23
f 51/291/23 81/209/23 71/208/23 41/292/23
f 52/293/23 82/221/23 73/220/23 45/294/23
f 53/295/22 78/238/22 74/296/22 46/297/22
f 54/298/22 76/253/22 72/299/22 47/300/22
f 67/301/24 61/302/24 88/266/24 91/303/24
f 68/304/24 58/305/24 84/281/24 90/306/24
