# Blender v3.0.0 OBJ File: 'house-v1.blend'
# www.blender.org
mtllib house-v1.mtl
o chimney_Cube.002
v -0.336234 1.889662 -1.263795
v -0.336234 3.370704 -1.263795
v -0.336234 1.889662 -1.936269
v -0.336234 3.370704 -1.936269
v 0.336234 1.889662 -1.263795
v 0.336234 3.370704 -1.263795
v 0.336234 1.889662 -1.936269
v 0.336234 3.370704 -1.936269
v 0.229768 1.889662 -1.428725
v 0.229768 1.889662 -1.823861
v -0.229768 1.889662 -1.428725
v -0.229768 1.889662 -1.823861
v -0.229768 3.370704 -1.428725
v -0.229768 3.370704 -1.823861
v 0.229768 3.370704 -1.428725
v 0.229768 3.370704 -1.823861
v -0.559250 -0.630084 -2.281152
v 1.768198 1.573152 -2.342004
v -0.559250 0.630084 -2.281152
v 1.768198 -1.573152 -2.342004
v 1.768198 1.573152 2.342004
v 1.768198 -1.573152 2.342004
v 0.559250 -0.630084 -2.281152
v -1.768198 1.573152 -2.342004
v 0.559250 0.630084 -2.281152
v -1.768198 -1.573152 -2.342004
v -1.768198 1.573152 2.342004
v -1.768198 -1.573152 2.342004
v -1.768198 -1.573152 -0.031750
v 1.768198 3.446484 -0.031750
v -1.768198 3.446484 -0.031750
v 1.768198 -1.573152 -0.031750
v 1.768198 1.857222 2.340730
v -1.768198 1.857222 2.340730
v 1.768198 3.730553 -0.033024
v -1.768198 3.730553 -0.033024
v -1.768198 1.857222 -2.343278
v 1.768198 1.857222 -2.343278
v 1.768198 1.247206 2.741054
v -1.768198 1.247206 2.741054
v -1.768198 1.245591 -2.741054
v 1.768198 1.245591 -2.741054
v 1.768198 1.529661 -2.742328
v 1.768198 1.531276 2.739780
v -1.768198 1.531276 2.739780
v -1.768198 1.529661 -2.742328
v 2.312418 3.446484 -0.031750
v 2.312418 1.573152 2.342004
v -2.312418 3.446484 -0.031750
v -2.312418 1.573152 -2.342004
v 2.312418 1.573152 -2.342004
v -2.312418 1.573152 2.342004
v 2.312418 1.857222 -2.343278
v 2.312418 3.730553 -0.033024
v 2.312418 1.857222 2.340730
v -2.312418 3.730553 -0.033024
v -2.312418 1.857222 -2.343278
v -2.312418 1.857222 2.340730
v 2.312418 1.245591 -2.741054
v 2.312418 1.529661 -2.742328
v -2.312418 1.529661 -2.742328
v -2.312418 1.245591 -2.741054
v 2.312418 1.531276 2.739780
v 2.312418 1.247206 2.741054
v -2.312418 1.247206 2.741054
v -2.312418 1.531276 2.739780
v 0.559250 0.630084 -2.342004
v -0.559250 0.630084 -2.342004
v -0.559250 -0.630084 -2.342004
v 0.559250 -0.630084 -2.342004
v 1.341906 -1.556704 0.687143
v 1.341906 0.078573 0.687143
v 1.341906 -1.556704 -0.509558
v 1.341906 0.078573 -0.509558
v 1.923824 -1.556704 0.687143
v 1.923824 0.078573 0.687143
v 1.923824 -1.556704 -0.509558
v 1.923824 0.078573 -0.509558
v 1.341906 -0.203993 0.473242
v 1.341906 -1.556704 0.473242
v 1.341906 -0.203993 -0.325661
v 1.341906 -1.556704 -0.325661
v 1.923824 -0.203993 0.473242
v 1.923824 -0.203993 -0.325661
v 1.923824 -1.556704 0.473242
v 1.923824 -1.556704 -0.325661
vt 0.375000 0.000000
vt 0.625000 0.000000
vt 0.625000 0.250000
vt 0.375000 0.250000
vt 0.625000 0.500000
vt 0.375000 0.500000
vt 0.625000 0.750000
vt 0.375000 0.750000
vt 0.625000 1.000000
vt 0.375000 1.000000
vt 0.125000 0.750000
vt 0.125000 0.500000
vt 0.164580 0.541789
vt 0.164580 0.688686
vt 0.335420 0.688686
vt 0.335420 0.541789
vt 0.875000 0.500000
vt 0.875000 0.750000
vt 0.664580 0.541789
vt 0.664580 0.688686
vt 0.835420 0.688686
vt 0.835420 0.541789
vt 0.555672 0.000000
vt 0.499449 0.000000
vt 0.499449 0.250000
vt 0.555672 0.250000
vt 0.499449 0.500000
vt 0.555672 0.500000
vt 0.499449 0.750000
vt 0.555672 0.750000
vt 0.499449 1.000000
vt 0.555672 1.000000
vt 0.875000 0.500000
vt 0.875000 0.500000
vt 0.875000 0.500000
vt 0.875000 0.500000
vt 0.125000 0.623305
vt 0.375000 0.623305
vt 0.375000 0.750000
vt 0.125000 0.750000
vt 0.125000 0.500000
vt 0.375000 0.500000
vt 0.625000 0.623305
vt 0.625000 0.500000
vt 0.625000 0.500000
vt 0.625000 0.623305
vt 0.625000 0.623305
vt 0.875000 0.623305
vt 0.875000 0.750000
vt 0.625000 0.750000
vt 0.625000 0.500000
vt 0.625000 0.750000
vt 0.625000 0.750000
vt 0.625000 0.750000
vt 0.875000 0.750000
vt 0.875000 0.750000
vt 0.875000 0.750000
vt 0.625000 1.000000
vt 0.625000 1.000000
vt 0.625000 1.000000
vt 0.625000 1.000000
vt 0.625000 0.500000
vt 0.625000 0.250000
vt 0.625000 0.250000
vt 0.625000 0.500000
vt 0.875000 0.623305
vt 0.625000 0.750000
vt 0.625000 0.750000
vt 0.625000 0.750000
vt 0.625000 0.750000
vt 0.625000 0.623305
vt 0.625000 0.126695
vt 0.625000 0.000000
vt 0.625000 0.000000
vt 0.625000 0.126695
vt 0.625000 0.250000
vt 0.625000 0.250000
vt 0.625000 0.500000
vt 0.625000 0.500000
vt 0.625000 0.500000
vt 0.625000 0.104284
vt 0.625000 0.000000
vt 0.375000 0.000000
vt 0.375000 0.104284
vt 0.375000 0.645716
vt 0.375000 0.750000
vt 0.625000 0.750000
vt 0.625000 0.645716
vt 0.125000 0.645716
vt 0.125000 0.750000
vt 0.875000 0.750000
vt 0.875000 0.645716
vt 0.375000 1.000000
vt 0.375000 0.126695
vt 0.375000 0.250000
vt 0.449935 0.414535
vt 0.550065 0.414535
vt 0.550065 0.335465
vt 0.449935 0.335465
vt 0.375000 0.000000
vt 0.625000 0.250000
vt 0.625000 1.000000
vt 0.625000 0.126695
vt 0.625000 0.250000
vt 0.625000 0.000000
vt 0.625000 0.000000
vt 0.625000 0.000000
vt 0.625000 0.250000
vt 0.625000 1.000000
vt 0.375000 1.000000
vt 0.625000 1.000000
vt 0.375000 0.000000
vt 0.625000 0.000000
vt 0.625000 0.250000
vt 0.375000 0.250000
vt 0.375000 0.211582
vt 0.581802 0.211582
vt 0.581802 0.044686
vt 0.375000 0.044686
vt 0.625000 0.500000
vt 0.375000 0.500000
vt 0.625000 0.750000
vt 0.375000 0.750000
vt 0.375000 0.705314
vt 0.581802 0.705314
vt 0.581802 0.538418
vt 0.375000 0.538418
vt 0.625000 1.000000
vt 0.375000 1.000000
vt 0.125000 0.750000
vt 0.125000 0.705314
vt 0.125000 0.538418
vt 0.125000 0.500000
vt 0.875000 0.500000
vt 0.875000 0.750000
vt 0.418355 0.453554
vt 0.625000 0.453554
vt 0.625000 0.296446
vt 0.418355 0.296446
vt 0.625000 0.953554
vt 0.625000 0.796446
vt 0.418355 0.796446
vt 0.418355 0.953554
vt 0.828554 0.500000
vt 0.671446 0.500000
vt 0.671446 0.750000
vt 0.828554 0.750000
vn -1.0000 0.0000 0.0000
vn 0.0000 0.0000 -1.0000
vn 1.0000 0.0000 0.0000
vn 0.0000 0.0000 1.0000
vn 0.0000 -1.0000 0.0000
vn 0.0000 1.0000 0.0000
vn 0.0000 0.7729 -0.6345
vn 0.0000 -0.7767 0.6298
vn 0.0000 0.7850 0.6195
vn 0.0000 0.7767 -0.6298
vn 0.0000 0.7745 0.6326
vn 0.0000 -0.7745 -0.6326
vn 0.0000 -0.7729 0.6345
vn 0.0000 -0.7850 -0.6195
vn 0.0000 -0.0045 -1.0000
vn 0.0000 0.0045 1.0000
usemtl Material.001
s off
f 1/1/1 2/2/1 4/3/1 3/4/1
f 3/4/2 4/3/2 8/5/2 7/6/2
f 7/6/3 8/5/3 6/7/3 5/8/3
f 5/8/4 6/7/4 2/9/4 1/10/4
f 7/6/5 5/8/5 1/11/5 3/12/5 12/13/5 11/14/5 9/15/5 10/16/5
f 12/13/5 3/12/5 7/6/5 10/16/5
f 4/17/6 2/18/6 6/7/6 8/5/6 16/19/6 15/20/6 13/21/6 14/22/6
f 16/19/6 8/5/6 4/17/6 14/22/6
f 13/23/3 11/24/3 12/25/3 14/26/3
f 14/26/4 12/25/4 10/27/4 16/28/4
f 10/27/1 9/29/1 15/30/1 16/28/1
f 9/29/2 11/31/2 13/32/2 15/30/2
usemtl grey-blue
f 37/33/7 46/34/7 61/35/7 57/36/7
f 29/37/5 32/38/5 22/39/5 28/40/5
f 26/41/5 20/42/5 32/38/5 29/37/5
f 30/43/8 18/44/8 51/45/8 47/46/8
f 35/47/9 36/48/9 34/49/9 33/50/9
f 38/51/10 37/33/10 36/48/10 35/47/10
f 33/50/11 44/52/11 63/53/11 55/54/11
f 33/50/11 34/49/11 45/55/11 44/52/11
f 45/55/11 34/49/11 58/56/11 66/57/11
f 27/58/12 40/59/12 65/60/12 52/61/12
f 37/33/7 38/51/7 43/62/7 46/34/7
f 18/44/13 24/63/13 41/64/13 42/65/13
f 34/49/9 36/48/9 56/66/9 58/56/9
f 39/67/12 21/68/12 48/69/12 64/70/12
f 27/58/12 21/68/12 39/67/12 40/59/12
f 35/47/9 33/50/9 55/54/9 54/71/9
f 31/72/14 27/73/14 52/74/14 49/75/14
f 41/64/13 24/63/13 50/76/13 62/77/13
f 21/68/14 30/43/14 47/46/14 48/69/14
f 36/48/10 37/33/10 57/36/10 56/66/10
f 43/62/7 38/51/7 53/78/7 60/79/7
f 18/44/13 42/65/13 59/80/13 51/45/13
f 24/63/8 31/72/8 49/75/8 50/76/8
f 38/51/10 35/47/10 54/71/10 53/78/10
f 68/81/3 19/82/3 17/83/3 69/84/3
f 70/85/1 23/86/1 25/87/1 67/88/1
f 69/89/6 17/90/6 23/86/6 70/85/6
f 25/87/5 19/91/5 68/92/5 67/88/5
usemtl Material.003
f 22/39/4 21/68/4 27/58/4 28/93/4
f 29/94/1 31/72/1 24/63/1 26/95/1
f 32/38/3 30/43/3 21/68/3 22/39/3
f 26/95/2 24/63/2 18/44/2 20/42/2 70/96/2 67/97/2 68/98/2 69/99/2
f 20/42/2 26/95/2 69/99/2 70/96/2
f 20/42/3 18/44/3 30/43/3 32/38/3
f 28/100/1 27/73/1 31/72/1 29/94/1
usemtl Material.004
f 42/65/15 43/62/15 60/79/15 59/80/15
f 42/65/15 41/64/15 46/101/15 43/62/15
f 40/59/16 39/67/16 44/52/16 45/102/16
f 50/76/1 49/75/1 56/103/1 57/104/1
f 47/46/3 51/45/3 53/78/3 54/71/3
f 48/69/3 47/46/3 54/71/3 55/54/3
f 49/75/1 52/74/1 58/105/1 56/103/1
f 58/105/1 52/74/1 65/106/1 66/107/1
f 50/76/1 57/104/1 61/108/1 62/77/1
f 48/69/3 55/54/3 63/53/3 64/70/3
f 53/78/3 51/45/3 59/80/3 60/79/3
f 46/101/15 41/64/15 62/77/15 61/108/15
f 44/52/16 39/67/16 64/70/16 63/53/16
f 40/59/16 45/102/16 66/109/16 65/60/16
usemtl Material.005
f 23/86/2 17/110/2 19/111/2 25/87/2
usemtl Material.002
f 71/112/1 72/113/1 74/114/1 73/115/1 82/116/1 81/117/1 79/118/1 80/119/1
f 73/115/2 74/114/2 78/120/2 77/121/2
f 77/121/3 78/120/3 76/122/3 75/123/3 85/124/3 83/125/3 84/126/3 86/127/3
f 75/123/4 76/122/4 72/128/4 71/129/4
f 75/123/5 71/130/5 80/131/5 85/124/5
f 82/132/5 73/133/5 77/121/5 86/127/5
f 78/120/6 74/134/6 72/135/6 76/122/6
f 86/136/4 84/137/4 81/138/4 82/139/4
f 79/140/2 83/141/2 85/142/2 80/143/2
f 81/144/5 84/145/5 83/146/5 79/147/5
